<svg id="_x31_" enable-background="new 0 0 24 24" height="512" viewBox="0 0 24 24" width="512" xmlns="http://www.w3.org/2000/svg"><g><g><g><path d="m13.515 21h-5.158c-.748 0-1.357-.609-1.357-1.357v-7.286c0-.748.609-1.357 1.357-1.357h7.285c.749 0 1.358.609 1.358 1.357v5.157c0 .4-.156.777-.438 1.061l-1.986 1.986c-.28.279-.667.439-1.061.439zm-5.158-9c-.197 0-.357.16-.357.357v7.286c0 .197.16.357.357.357h5.157c.132 0 .261-.053.354-.146l1.985-1.985c.095-.096.147-.222.147-.355v-5.157c0-.197-.16-.357-.357-.357z"/></g></g><g><g><path d="m11.199 18.634c-.133 0-.26-.053-.354-.146l-2.134-2.134c-.195-.195-.195-.512 0-.707s.512-.195.707 0l1.756 1.756 3.384-3.866c.182-.208.498-.229.705-.047.208.182.229.498.047.706l-3.735 4.269c-.091.104-.221.166-.359.17-.006-.001-.011-.001-.017-.001z"/></g></g></g><g><g><path d="m21.5 24h-19c-1.379 0-2.5-1.122-2.5-2.5v-17c0-1.378 1.121-2.5 2.5-2.5h19c1.379 0 2.5 1.122 2.5 2.5v17c0 1.378-1.121 2.5-2.5 2.5zm-19-21c-.827 0-1.5.673-1.5 1.5v17c0 .827.673 1.5 1.5 1.5h19c.827 0 1.5-.673 1.5-1.5v-17c0-.827-.673-1.5-1.5-1.5z"/></g></g><g><g><path d="m23.5 8h-23c-.276 0-.5-.224-.5-.5s.224-.5.5-.5h23c.276 0 .5.224.5.5s-.224.5-.5.5z"/></g></g><g><g><path d="m5.5 5c-.276 0-.5-.224-.5-.5v-4c0-.276.224-.5.5-.5s.5.224.5.5v4c0 .276-.224.5-.5.5z"/></g></g><g><g><path d="m18.5 5c-.276 0-.5-.224-.5-.5v-4c0-.276.224-.5.5-.5s.5.224.5.5v4c0 .276-.224.5-.5.5z"/></g></g></svg>